<svg id="Layer_1" data-name="Layer 1" xmlns="http://www.w3.org/2000/svg" xmlns:xlink="http://www.w3.org/1999/xlink" viewBox="0 0 215.25 200.25"><defs><filter id="luminosity-noclip" x="20.27" y="15.04" width="176.37" height="175.57" filterUnits="userSpaceOnUse" color-interpolation-filters="sRGB"><feFlood flood-color="#fff" result="bg"/><feBlend in="SourceGraphic" in2="bg"/></filter><mask id="mask" x="20.39" y="15.16" width="176.37" height="175.57" maskUnits="userSpaceOnUse"><g style="filter:url(#luminosity-noclip)"><g transform="translate(0.13 0.13)"><path d="M133.67,120.32l2,2.56,2,2.55,2,2.55,2,2.56-.38.3-.37.31-.38.31-.38.31-2.06-2.55-2.06-2.54-2.06-2.55-2.05-2.54.4-.32.4-.31.4-.32Z"/></g></g></mask></defs><title>ibsen</title><path d="M0,0H215V200H0V0ZM160.67,105.92l7.36,2.92,7.24,2.88,7.18,2.81c2.39.93,4.77,1.85,7.16,2.75a14.9,14.9,0,0,0,1.47.46,10.73,10.73,0,0,0,1.58.3,7,7,0,0,0,1.51,0,3.78,3.78,0,0,0,1.29-.35,1.59,1.59,0,0,0,.61-.81,5.9,5.9,0,0,0,.35-1.42,9.89,9.89,0,0,0,.08-1.63,5.6,5.6,0,0,0-.22-1.45q-1.28-4.2-2.59-8.37c-.89-2.78-1.78-5.56-2.67-8.32l-2.69-8.27q-1.35-4.12-2.67-8.2a11,11,0,0,1,.86-1.13c.34-.41.71-.84,1-1.3a8.44,8.44,0,0,0,.89-1.4,3.28,3.28,0,0,0,.36-1.46,47.2,47.2,0,0,0-.82-8.36A32.79,32.79,0,0,0,185.55,58a27.26,27.26,0,0,0-4.39-6.61A29.32,29.32,0,0,0,174.53,46a3.73,3.73,0,0,0-.93-.4,9.76,9.76,0,0,0-1.14-.25l-1.41-.23c-.52-.08-1.09-.19-1.73-.33l1.39,2.64,1.23,2.34L173.12,52l1.22,2.33-.61-.36-.36-.21-.2-.12-.11-.08c-.28-.3-.57-.6-.85-.91l-.86-.91-.85-.9-.86-.91a97.14,97.14,0,0,0-8.51-8,73.75,73.75,0,0,0-9.3-6.65,62.46,62.46,0,0,0-10.27-5,59.46,59.46,0,0,0-11.4-3c-2.17-.36-4.36-.66-6.55-1s-4.38-.59-6.56-.93-4.35-.73-6.48-1.2a58.47,58.47,0,0,1-6.29-1.74c-4.38-1.5-8.77-2.8-13.18-3.87A121.74,121.74,0,0,0,77.81,16a105.53,105.53,0,0,0-13.43-.87,96.35,96.35,0,0,0-13.6,1,44.79,44.79,0,0,0-4.8,1q-2.38.62-4.73,1.46c-1.57.55-3.11,1.17-4.63,1.84s-3,1.38-4.45,2.12a7.29,7.29,0,0,0-2.53,2,3.52,3.52,0,0,0-.8,2.23A4.2,4.2,0,0,0,29.68,29a9.13,9.13,0,0,0,2.37,2.22,6.09,6.09,0,0,1,1.49,1.37,2.59,2.59,0,0,1,.29,2.86A5.93,5.93,0,0,1,32.72,37a43.17,43.17,0,0,0-7,9.42,42.21,42.21,0,0,0-3.94,10.26,51.7,51.7,0,0,0-1.37,11,73.72,73.72,0,0,0,.69,11.49,17.6,17.6,0,0,0,.57,2.59c.26.86.56,1.7.89,2.55s.68,1.68,1,2.53.68,1.68,1,2.53l.35-.1.35-.11.35-.11.36-.1,1.79-4.74,1.82-4.79,1.85-4.88,1.9-5A19,19,0,0,1,38,75.75a12.46,12.46,0,0,1,1.07,6.44,10.59,10.59,0,0,1-2.5,5.7A14.58,14.58,0,0,1,30.47,92a12.73,12.73,0,0,0-3.31,1.82,13,13,0,0,0-2.54,2.6,15.81,15.81,0,0,0-1.83,3.22,20.61,20.61,0,0,0-1.18,3.71,22.85,22.85,0,0,0-.56,5.08,25.19,25.19,0,0,0,.51,4.92A31.15,31.15,0,0,0,22.92,118a44.69,44.69,0,0,0,2,4.55,5.72,5.72,0,0,0,1.26,1.57,10.37,10.37,0,0,0,1.91,1.35,9.9,9.9,0,0,0,2.14.91,5.42,5.42,0,0,0,2,.23,16.24,16.24,0,0,0,3-.63,32.38,32.38,0,0,0,3-1.11c1-.43,2.1-.9,3.2-1.39s2.26-1,3.47-1.43a7.23,7.23,0,0,0,2.57,1c1,.23,2.1.43,3.18.78a8.25,8.25,0,0,1,3.08,1.65A7.84,7.84,0,0,1,56,129.12a21.86,21.86,0,0,0-6.42,4.11,22.65,22.65,0,0,0-4.28,5.55,34.31,34.31,0,0,0-2.72,6.59,74.12,74.12,0,0,0-1.78,7.23,9.91,9.91,0,0,1-.31,1.19q-.2.59-.42,1.17l-.48,1.16c-.16.39-.31.77-.46,1.16A20.31,20.31,0,0,0,38,167.86a19.07,19.07,0,0,0,12,14.69,20.14,20.14,0,0,0,10.59,1c.92-.16,1.84-.37,2.76-.62s1.82-.54,2.73-.84,1.83-.62,2.75-.93,1.85-.63,2.8-.91c.18.39.35.79.52,1.2l.51,1.23c.18.41.36.82.56,1.22a13.37,13.37,0,0,0,.65,1.17A17.11,17.11,0,0,0,77,189a5.47,5.47,0,0,0,3.15,1.46,6.71,6.71,0,0,0,3.54-.84,24.72,24.72,0,0,0,4.32-2.89c1.7-1.35,3.45-2.68,5.24-4s3.62-2.52,5.48-3.69,3.77-2.27,5.7-3.29,3.9-2,5.9-2.79a21.28,21.28,0,0,1,4-1.19,27.56,27.56,0,0,1,4.39-.49,28.16,28.16,0,0,1,4.42.22,21.35,21.35,0,0,1,4.08.95A46.37,46.37,0,0,0,139.83,175a50,50,0,0,0,12-.83,73,73,0,0,0,11.61-3.25c3.83-1.39,7.62-3,11.4-4.77a9.63,9.63,0,0,0,2.57-1.72,8.47,8.47,0,0,0,1.8-2.34,8.09,8.09,0,0,0,.88-2.81,8.53,8.53,0,0,0-.19-3.12q-.9-3.75-1.81-7.5c-.62-2.5-1.25-5-1.93-7.47s-1.37-5-2.13-7.41-1.58-4.88-2.47-7.28a15,15,0,0,0-1.67-3.17,30.09,30.09,0,0,0-2.32-2.93c-.84-1-1.73-1.88-2.6-2.82s-1.73-1.89-2.51-2.86l-.11.19-.11.19-.12.19-.11.19-.28-2-.31-2.16-.34-2.46Z" transform="translate(0.13 0.13)" style="fill:#fff;stroke:#fff;stroke-miterlimit:10;stroke-width:0.25px"/><g style="mask:url(#mask)"><path d="M160.67,105.92l.41,2.94.34,2.46.31,2.16.28,2,.11-.19.12-.19.11-.19.11-.19c.78,1,1.64,1.92,2.51,2.86s1.76,1.87,2.6,2.82a30.09,30.09,0,0,1,2.32,2.93,15,15,0,0,1,1.67,3.17q1.33,3.6,2.47,7.28c.76,2.45,1.46,4.92,2.13,7.41s1.31,5,1.93,7.47,1.21,5,1.81,7.5a8.53,8.53,0,0,1,.19,3.12,8.09,8.09,0,0,1-.88,2.81,8.47,8.47,0,0,1-1.8,2.34,9.63,9.63,0,0,1-2.57,1.72c-3.78,1.74-7.57,3.38-11.4,4.77a73,73,0,0,1-11.61,3.25,50,50,0,0,1-12,.83,46.37,46.37,0,0,1-12.56-2.49,21.35,21.35,0,0,0-4.08-.95,28.16,28.16,0,0,0-4.42-.22,27.56,27.56,0,0,0-4.39.49,21.28,21.28,0,0,0-4,1.19c-2,.83-4,1.77-5.9,2.79s-3.83,2.12-5.7,3.29-3.69,2.41-5.48,3.69-3.54,2.61-5.24,4a24.72,24.72,0,0,1-4.32,2.89,6.71,6.71,0,0,1-3.54.84A5.47,5.47,0,0,1,77,189a17.11,17.11,0,0,1-3.17-4,13.37,13.37,0,0,1-.65-1.17c-.2-.4-.38-.81-.56-1.22l-.51-1.23c-.17-.41-.34-.81-.52-1.2-.95.28-1.87.6-2.8.91s-1.83.63-2.75.93-1.82.59-2.73.84-1.84.46-2.76.62a20.14,20.14,0,0,1-10.59-1,19.07,19.07,0,0,1-12-14.69,20.31,20.31,0,0,1,1.13-10.58c.15-.39.3-.77.46-1.16l.48-1.16q.23-.59.42-1.17a9.91,9.91,0,0,0,.31-1.19,74.12,74.12,0,0,1,1.78-7.23,34.31,34.31,0,0,1,2.72-6.59,22.65,22.65,0,0,1,4.28-5.55A21.86,21.86,0,0,1,56,129.12a7.84,7.84,0,0,0-2.25-3.61,8.25,8.25,0,0,0-3.08-1.65c-1.08-.35-2.18-.55-3.18-.78a7.23,7.23,0,0,1-2.57-1c-1.21.46-2.36,1-3.47,1.43s-2.17,1-3.2,1.39a32.38,32.38,0,0,1-3,1.11,16.24,16.24,0,0,1-3,.63,5.42,5.42,0,0,1-2-.23,9.9,9.9,0,0,1-2.14-.91,10.37,10.37,0,0,1-1.91-1.35,5.72,5.72,0,0,1-1.26-1.57,44.69,44.69,0,0,1-2-4.55,31.15,31.15,0,0,1-1.36-4.73,25.19,25.19,0,0,1-.51-4.92,22.85,22.85,0,0,1,.56-5.08,20.61,20.61,0,0,1,1.18-3.71,15.81,15.81,0,0,1,1.83-3.22,13,13,0,0,1,2.54-2.6A12.73,12.73,0,0,1,30.47,92a14.58,14.58,0,0,0,6.09-4.06,10.59,10.59,0,0,0,2.5-5.7A12.46,12.46,0,0,0,38,75.75a19,19,0,0,0-4.66-6.27l-1.9,5-1.85,4.88-1.82,4.79L26,88.9l-.36.1-.35.11-.35.11-.35.1c-.3-.85-.63-1.69-1-2.53s-.69-1.69-1-2.53-.63-1.69-.89-2.55a17.6,17.6,0,0,1-.57-2.59,73.72,73.72,0,0,1-.69-11.49,51.7,51.7,0,0,1,1.37-11,42.21,42.21,0,0,1,3.94-10.26,43.17,43.17,0,0,1,7-9.42,5.93,5.93,0,0,0,1.11-1.51,2.59,2.59,0,0,0-.29-2.86,6.09,6.09,0,0,0-1.49-1.37A9.13,9.13,0,0,1,29.68,29a4.2,4.2,0,0,1-.84-2.32,3.52,3.52,0,0,1,.8-2.23,7.29,7.29,0,0,1,2.53-2c1.45-.74,2.94-1.46,4.45-2.12s3.06-1.29,4.63-1.84,3.14-1,4.73-1.46a44.79,44.79,0,0,1,4.8-1,96.35,96.35,0,0,1,13.6-1A105.53,105.53,0,0,1,77.81,16,121.74,121.74,0,0,1,91.1,18.5c4.41,1.07,8.8,2.37,13.18,3.87a58.47,58.47,0,0,0,6.29,1.74c2.13.47,4.3.86,6.48,1.2s4.37.63,6.56.93,4.38.6,6.55,1a59.46,59.46,0,0,1,11.4,3,62.46,62.46,0,0,1,10.27,5,73.75,73.75,0,0,1,9.3,6.65,97.14,97.14,0,0,1,8.51,8l.86.91.85.9.86.91c.28.31.57.61.85.91l.11.08.2.12.36.21.61.36L173.12,52l-1.18-2.24-1.23-2.34-1.39-2.64c.64.14,1.21.25,1.73.33l1.41.23a9.76,9.76,0,0,1,1.14.25,3.73,3.73,0,0,1,.93.4,29.32,29.32,0,0,1,6.63,5.44A27.26,27.26,0,0,1,185.55,58,32.79,32.79,0,0,1,188,65.59a47.2,47.2,0,0,1,.82,8.36,3.28,3.28,0,0,1-.36,1.46,8.44,8.44,0,0,1-.89,1.4c-.34.46-.71.89-1,1.3a11,11,0,0,0-.86,1.13q1.32,4.08,2.67,8.2L191,95.71c.89,2.76,1.78,5.54,2.67,8.32s1.74,5.57,2.59,8.37a5.6,5.6,0,0,1,.22,1.45,9.89,9.89,0,0,1-.08,1.63,5.9,5.9,0,0,1-.35,1.42,1.59,1.59,0,0,1-.61.81,3.78,3.78,0,0,1-1.29.35,7,7,0,0,1-1.51,0,10.73,10.73,0,0,1-1.58-.3,14.9,14.9,0,0,1-1.47-.46c-2.39-.9-4.77-1.82-7.16-2.75l-7.18-2.81L168,108.84Zm-59.81,60.23.36.55.37.55.37.55.37.54c-.34.25-.66.52-1,.79s-.65.56-1,.82a11.74,11.74,0,0,1-1,.73,4.85,4.85,0,0,1-1.08.51c-1.57.52-3.16,1-4.75,1.49l-4.78,1.41c-1.59.47-3.19.94-4.77,1.43s-3.16,1-4.73,1.56a4.45,4.45,0,0,0-1.23.72,9.05,9.05,0,0,0-1.2,1.12,7,7,0,0,0-.86,1.16,1.22,1.22,0,0,0-.21.86,13.49,13.49,0,0,0,.82,1.72,14.49,14.49,0,0,0,1.08,1.64,16.61,16.61,0,0,0,1.28,1.5,15.74,15.74,0,0,0,1.41,1.31.92.92,0,0,0,.76.06,5.92,5.92,0,0,0,1.19-.42c.44-.2.89-.44,1.33-.69s.84-.51,1.18-.74c1.57-1.08,3.11-2.21,4.64-3.35s3.06-2.29,4.6-3.42,3.09-2.24,4.67-3.3,3.18-2.05,4.84-3a37.72,37.72,0,0,1,6.69-2.92,30.61,30.61,0,0,1,6.9-1.39,28.06,28.06,0,0,1,7.07.31,30.75,30.75,0,0,1,7.2,2.19,11.8,11.8,0,0,0,1.73.6,18.58,18.58,0,0,0,1.83.39c.62.1,1.25.18,1.88.25l1.87.2a41.64,41.64,0,0,0,8.72,0,52.6,52.6,0,0,0,8.37-1.59,83.83,83.83,0,0,0,8.11-2.71c2.67-1,5.3-2.19,7.92-3.36a6.59,6.59,0,0,0,1.76-1.25,11.54,11.54,0,0,0,1.61-1.91,9.71,9.71,0,0,0,1.12-2.13,4.23,4.23,0,0,0,.31-1.93c-.35-2.81-.75-5.6-1.24-8.38s-1.08-5.53-1.8-8.25a69,69,0,0,0-2.66-8,54.16,54.16,0,0,0-3.79-7.68,16.3,16.3,0,0,0-1.78-2.49,10.15,10.15,0,0,0-2.12-1.88,8.44,8.44,0,0,0-2.57-1.16,10.57,10.57,0,0,0-3.16-.31,10.11,10.11,0,0,1-1.65,0c-.55,0-1.1-.13-1.64-.23s-1.07-.2-1.59-.3-1-.19-1.52-.26V111l1.86.31,1.85.3,2,.33,2.19.36-1.57-2.73L156,107.05l-1.32-2.3-1.28-2.22.18-.34.18-.34.18-.34.17-.34,9.72,3.33,9.74,3.33,9.77,3.35,9.84,3.36c0-.3,0-.63,0-1s0-.72,0-1.09,0-.77-.08-1.15a9.07,9.07,0,0,0-.2-1.16c-.7-2.88-1.46-5.74-2.32-8.56s-1.82-5.58-2.93-8.3a71.9,71.9,0,0,0-3.78-7.93,60.16,60.16,0,0,0-4.88-7.47,13.18,13.18,0,0,1-1.4-2.16,5,5,0,0,1-.6-2.08,2.91,2.91,0,0,1,.66-1.92,6,6,0,0,1,2.33-1.67,77.32,77.32,0,0,0-9-13.95A87.18,87.18,0,0,0,159.3,44.27a69.28,69.28,0,0,0-12.64-8.59,38.62,38.62,0,0,0-12.23-4.2c.91,1.45,1.93,2.91,3,4.39s2.14,3,3.19,4.52,2,3.1,2.92,4.72a29.66,29.66,0,0,1,2.18,5c1.06,3.31,2,6.65,2.88,10s1.68,6.78,2.45,10.22,1.51,6.89,2.27,10.36,1.52,7,2.34,10.48l-1.83.31-1.59.27-1.48.25-1.48.24c-.12-.67-.23-1.32-.35-2s-.22-1.23-.32-1.82-.21-1.17-.31-1.74-.21-1.14-.31-1.7c-.51-2.78-.95-5.57-1.39-8.37s-.86-5.59-1.32-8.38-1-5.57-1.54-8.32-1.24-5.48-2-8.18a33.28,33.28,0,0,0-5.77-11.16,34.53,34.53,0,0,0-9.19-8.11,36,36,0,0,0-11.47-4.46,35.21,35.21,0,0,0-12.59-.24A47.11,47.11,0,0,0,89.44,32a42.92,42.92,0,0,0-10.55,7.23,52.35,52.35,0,0,0-8.25,9.91,77.07,77.07,0,0,0-6.32,12.13,10.13,10.13,0,0,0-.63,2.05,6.86,6.86,0,0,0-.1,1.91A7.28,7.28,0,0,0,64,67.07a12.22,12.22,0,0,0,1,2,42.45,42.45,0,0,1,3.9,8.71,39.65,39.65,0,0,1,1.71,8.94,42.35,42.35,0,0,1-.33,9.12A51.46,51.46,0,0,1,68,105.1a12.26,12.26,0,0,1-1.16,2.58,6.05,6.05,0,0,1-1.66,1.81,4.55,4.55,0,0,1-2.29.79,7.91,7.91,0,0,1-3.09-.46c.08-.14.15-.28.21-.41s.12-.26.18-.37a3.59,3.59,0,0,1,.17-.34c.06-.1.12-.2.19-.3a37.2,37.2,0,0,0,4.27-7.66,30.13,30.13,0,0,0,1.87-16.1,35.93,35.93,0,0,0-2.37-8.33,22.73,22.73,0,0,0-4.28-6.82A22,22,0,0,0,54.23,65a31.87,31.87,0,0,0-7-2.68,56.55,56.55,0,0,0-7.83-1.37A5.75,5.75,0,0,1,38,60.61,12.48,12.48,0,0,1,36.73,60l-1.29-.68c-.43-.23-.86-.46-1.3-.65l1.4-.54,1.4-.55c.47-.18.94-.36,1.41-.52s.95-.32,1.43-.46a2.2,2.2,0,0,1,.58-.09,3.33,3.33,0,0,1,.63,0,4.76,4.76,0,0,1,.64.11c.21,0,.42.1.61.16l4,1.11,4.07,1.14,4.13,1.16,4.21,1.18a62.25,62.25,0,0,1,6.19-12.78,57.92,57.92,0,0,1,8.64-10.56,63.86,63.86,0,0,1,11-8.45,80.84,80.84,0,0,1,13.16-6.45c-2.58-.56-5.16-1.13-7.73-1.66s-5.12-1-7.67-1.48-5.1-.83-7.65-1.11-5.09-.49-7.64-.56c-2.17-.06-4.35,0-6.53.16s-4.37.39-6.55.69-4.36.65-6.54,1l-6.5,1.13A17.84,17.84,0,0,0,38.2,22a12.45,12.45,0,0,0-2.51,1.17,9.23,9.23,0,0,0-2.15,1.86A9,9,0,0,0,32,27.77l1.33.76,1.16.66,1,.55.73.42,3.52-1.69L43,26.87c1.08-.51,2.15-1,3.22-1.5s2.12-.94,3.19-1.38a1.91,1.91,0,0,1,.84-.11,4.94,4.94,0,0,1,.95.18l1,.3a9.5,9.5,0,0,0,1,.26A10.42,10.42,0,0,0,53,25.68c-.06.37-.11.75-.18,1.11a5.15,5.15,0,0,1-.28,1,1.74,1.74,0,0,1-.5.69c-.53.39-1.08.75-1.64,1.09s-1.15.66-1.74,1-1.19.6-1.8.88l-1.8.86a36.57,36.57,0,0,0-11.13,8.41A42.1,42.1,0,0,0,26.4,52.53a42.61,42.61,0,0,0-3.24,13.76,38.55,38.55,0,0,0,1.7,14.09c.57-1,1.11-2.08,1.64-3.13s1.06-2.11,1.61-3.15S29.22,72,29.82,71a31.52,31.52,0,0,1,1.94-2.88,11.43,11.43,0,0,1,2.81-2.73,7.1,7.1,0,0,1,3.27-1.15,10.41,10.41,0,0,1,4,.48,26.31,26.31,0,0,1,5,2.19L45.2,68.12l-1.65,1.21-1.7,1.25-1.8,1.32a38.16,38.16,0,0,1,2.33,7.5A10.48,10.48,0,0,1,42,84.92a12.82,12.82,0,0,1-3.47,4.78,55.61,55.61,0,0,1-7,5.25,16,16,0,0,0-2.31,1.9,18.24,18.24,0,0,0-2.06,2.39,17.38,17.38,0,0,0-1.6,2.66,11.41,11.41,0,0,0-.92,2.73,15.84,15.84,0,0,0-.27,3.32,23.82,23.82,0,0,0,.33,3.45c.19,1.16.45,2.32.75,3.46s.64,2.26,1,3.34a7,7,0,0,0,.95,1.79,11.55,11.55,0,0,0,1.5,1.73,9.32,9.32,0,0,0,1.75,1.3,3.49,3.49,0,0,0,1.66.5,15.07,15.07,0,0,0,4-.45,5.84,5.84,0,0,0,2.54-1.32,5.48,5.48,0,0,0,1.39-2.28,12.54,12.54,0,0,0,.51-3.33c.05-1.08.08-2.16.1-3.24s0-2.17.07-3.25.08-2.16.16-3.23.19-2.14.36-3.21a4.85,4.85,0,0,1,1-2.34,3.68,3.68,0,0,1,1.78-1.21,3.55,3.55,0,0,1,2.14,0A4.67,4.67,0,0,1,48.43,101a21.81,21.81,0,0,1,1.43,1.75c.46.61.89,1.24,1.33,1.9s.86,1.33,1.31,2,.9,1.39,1.39,2.1a37.13,37.13,0,0,0-5,.48A7.27,7.27,0,0,0,46,110.34a3,3,0,0,0-1.23,1.88,8.78,8.78,0,0,0,0,3,6.42,6.42,0,0,0,.94,2.73,4.11,4.11,0,0,0,2,1.53,9.31,9.31,0,0,0,3.38.39,30.71,30.71,0,0,0,5-.69,8.94,8.94,0,0,0,.14,3.67,3.64,3.64,0,0,0,1.51,2.09,5.53,5.53,0,0,0,2.67.79,15.84,15.84,0,0,0,3.63-.26c-.83.83-1.67,1.62-2.51,2.39s-1.69,1.52-2.55,2.24-1.71,1.43-2.58,2.11-1.75,1.35-2.64,2a27.59,27.59,0,0,0-2.9,2.4,19.16,19.16,0,0,0-2.4,2.71,16.46,16.46,0,0,0-1.79,3.15,17.18,17.18,0,0,0-1.09,3.72c-.19,1.09-.43,2.18-.7,3.27s-.59,2.16-.92,3.23-.69,2.15-1.06,3.21-.75,2.12-1.13,3.17a16.78,16.78,0,0,0-1,6.65,15.43,15.43,0,0,0,1.6,6.12,15.83,15.83,0,0,0,3.92,5,17.31,17.31,0,0,0,5.93,3.27,15.39,15.39,0,0,0,4.43.74,18.55,18.55,0,0,0,4.22-.44,33.76,33.76,0,0,0,4.11-1.2c1.35-.48,2.71-1,4.08-1.52,2.64-1,5.28-2,7.92-2.93L85,171.86c2.65-1,5.31-1.9,8-2.85Zm80.93-110-.56.17-.57.18-.56.18-.56.18a7.53,7.53,0,0,1,2.2,4.19,24.06,24.06,0,0,1,.23,4.75,19.49,19.49,0,0,0,.31,4.73,7.39,7.39,0,0,0,2.44,4.13l.45-.13.46-.12.46-.13.46-.12-1.19-4.5-1.19-4.51L183,60.66Z" transform="translate(0.13 0.13)" style="fill:#fff;stroke:#fff;stroke-miterlimit:10;stroke-width:0.25px"/><path d="M84.06,107.9a49,49,0,0,1,5-6.43,18.93,18.93,0,0,1,4.74-3.82,11.31,11.31,0,0,1,4.89-1.41,15.24,15.24,0,0,1,5.44.81,14.13,14.13,0,0,1,2.18.93,19.19,19.19,0,0,1,2.1,1.3,22.38,22.38,0,0,1,1.92,1.58A18.06,18.06,0,0,1,112,102.6a12.61,12.61,0,0,0,2.11,2.07,3.44,3.44,0,0,0,1.88.75,3,3,0,0,0,1.84-.64,9.52,9.52,0,0,0,2-2.14,20.62,20.62,0,0,1,3.93-4.28,11,11,0,0,1,4.11-2.13,8.08,8.08,0,0,1,4.17.06,11.14,11.14,0,0,1,4.11,2.28,11.64,11.64,0,0,1,3.42,4.61,9.27,9.27,0,0,1,.52,5,9.46,9.46,0,0,1-2.2,4.57,12.36,12.36,0,0,1-4.76,3.33,13.26,13.26,0,0,0-1.81.9c-.59.34-1.17.71-1.74,1.08s-1.16.73-1.75,1.06a12.15,12.15,0,0,1-1.81.89c-.58.24-1.19.45-1.8.64s-1.24.36-1.86.5-1.27.26-1.9.34a17.56,17.56,0,0,1-1.9.15,25.4,25.4,0,0,0-5.19.67,22.11,22.11,0,0,0-4.66,1.69,21.33,21.33,0,0,0-4.14,2.7,25.82,25.82,0,0,0-3.63,3.68,4.48,4.48,0,0,0-.58.94,10.45,10.45,0,0,0-.42,1.12c-.12.39-.24.8-.36,1.22s-.26.86-.43,1.29c1.39-.47,2.73-.95,4-1.42l3.81-1.38c1.25-.44,2.48-.86,3.7-1.24s2.45-.71,3.69-1a10.24,10.24,0,0,1,3.77-.24,5.09,5.09,0,0,1,4.3,3.5,9.59,9.59,0,0,1,.5,3.4c-.87-.27-1.78-.62-2.69-1s-1.84-.76-2.76-1.1a18.38,18.38,0,0,0-2.76-.82,8.44,8.44,0,0,0-2.69-.13,7.45,7.45,0,0,0-2.56.86,21.44,21.44,0,0,0-2.46,1.56c-.81.59-1.63,1.21-2.46,1.78a15.8,15.8,0,0,1-2.57,1.48,15.8,15.8,0,0,0-3,1.68A10.57,10.57,0,0,0,96.7,143a8,8,0,0,0-1.31,2.64,8.62,8.62,0,0,0-.28,3.17,14.29,14.29,0,0,0,.4,2.32,15.17,15.17,0,0,0,.78,2.36,12.72,12.72,0,0,0,1.15,2.13,8,8,0,0,0,1.48,1.67,16,16,0,0,0,6.76,3.08,25.46,25.46,0,0,0,8.15.33,26,26,0,0,0,7.9-2.18,16.9,16.9,0,0,0,6-4.46,8.41,8.41,0,0,0,1-1.51,17.38,17.38,0,0,0,.73-1.7c.21-.59.41-1.19.61-1.79s.4-1.19.62-1.76q.17-.42.3-.84c.09-.28.17-.56.25-.85s.16-.57.23-.86l.24-.85.53.08.53.08.53.08.52.07c-.1.75-.15,1.52-.19,2.29s-.08,1.55-.14,2.31a17.44,17.44,0,0,1-.32,2.22,7.4,7.4,0,0,1-.73,2,23.15,23.15,0,0,1-1.43,2.27,22.41,22.41,0,0,1-1.73,2.16,16.65,16.65,0,0,1-2,1.87,12.32,12.32,0,0,1-2.18,1.42,31.65,31.65,0,0,1-6.93,2.56,28.18,28.18,0,0,1-7,.76,29.45,29.45,0,0,1-7-1,34.67,34.67,0,0,1-6.92-2.71,13.77,13.77,0,0,1-3.67-2.68,8.84,8.84,0,0,1-2-3.31,9.39,9.39,0,0,1-.46-3.88,15,15,0,0,1,1.09-4.4c.75-1.86,1.49-3.71,2.24-5.56L96.63,135q1.13-2.78,2.24-5.55t2.24-5.56a11.26,11.26,0,0,0,.66-2,3.25,3.25,0,0,0,0-1.64,3,3,0,0,0-1-1.41,8.69,8.69,0,0,0-2.23-1.29,29.11,29.11,0,0,1-3.74-2c-1.22-.74-2.4-1.56-3.59-2.42s-2.35-1.75-3.54-2.64S85.3,108.76,84.06,107.9Zm16.53,5.22a10.68,10.68,0,0,0,3.31-.54,9.08,9.08,0,0,0,2.69-1.42,6.86,6.86,0,0,0,1.82-2.1,5.59,5.59,0,0,0,.13-5.25,6.78,6.78,0,0,0-1.76-2.18,8.48,8.48,0,0,0-2.64-1.48,9.87,9.87,0,0,0-3.26-.56,13.34,13.34,0,0,0-3.66.45,8.44,8.44,0,0,0-2.8,1.31A5.69,5.69,0,0,0,92,106.13a6.34,6.34,0,0,0,.63,2.82,6.61,6.61,0,0,0,1.8,2.22,8.29,8.29,0,0,0,2.73,1.45A10.8,10.8,0,0,0,100.59,113.12Zm29.86-12.3a9.9,9.9,0,0,0-3.11.49A6.78,6.78,0,0,0,125,102.6a5.7,5.7,0,0,0-1.47,2,6.33,6.33,0,0,0-.53,2.54,6,6,0,0,0,.57,2.6,6.66,6.66,0,0,0,1.57,2.13,7.24,7.24,0,0,0,5.1,1.87,7.59,7.59,0,0,0,2.8-.62,7.28,7.28,0,0,0,2.24-1.52,6.36,6.36,0,0,0,1.44-2.21,6.05,6.05,0,0,0,.4-2.66,6.83,6.83,0,0,0-.73-2.75,5.1,5.1,0,0,0-1.55-1.73,7.25,7.25,0,0,0-2.07-1A14,14,0,0,0,130.45,100.82Zm-8,13.26-2-1.48-2-1.48-2-1.47-2-1.46c-.33.47-.69.94-1.06,1.4s-.73.92-1.08,1.39a16.49,16.49,0,0,0-1,1.43,9.21,9.21,0,0,0-.73,1.52,1.78,1.78,0,0,0,0,1,5.76,5.76,0,0,0,.43,1.22,5.23,5.23,0,0,0,.68,1.08,1.88,1.88,0,0,0,.77.61,10.41,10.41,0,0,0,2.54.51,7,7,0,0,0,2.52-.27,7.91,7.91,0,0,0,2.5-1.33A13.34,13.34,0,0,0,122.45,114.08Z" transform="translate(0.13 0.13)" style="fill:#fff;stroke:#fff;stroke-miterlimit:10;stroke-width:0.25px"/><path d="M116.46,87.32a9.24,9.24,0,0,0,2.72,2.06,5.12,5.12,0,0,0,2.55.48,6.61,6.61,0,0,0,2.45-.72,14.32,14.32,0,0,0,2.41-1.54c.53-.4,1.07-.79,1.61-1.17s1.1-.75,1.66-1.11,1.13-.69,1.71-1,1.16-.63,1.76-.92a13.85,13.85,0,0,1,5.16-1.53,5.83,5.83,0,0,1,3.79.94,6,6,0,0,1,2.22,3.27,14.49,14.49,0,0,1,.44,5.43c0,.45-.08.91-.14,1.37s-.13.91-.22,1.37-.21.89-.35,1.32a8.84,8.84,0,0,1-.51,1.23,3.67,3.67,0,0,1-.63.85,7.78,7.78,0,0,1-.85.74l-.94.69a10.92,10.92,0,0,0-.91.7l-.26-.23-.25-.23-.26-.23-.26-.23.51-1.85c.18-.61.35-1.23.52-1.85s.34-1.23.49-1.85.3-1.24.43-1.87a9.09,9.09,0,0,0,.2-2.93,3.09,3.09,0,0,0-.81-1.87,2.87,2.87,0,0,0-1.83-.79,8.45,8.45,0,0,0-2.86.34,15.88,15.88,0,0,0-1.72.59c-.57.24-1.13.51-1.68.8s-1.09.62-1.61,1-1,.69-1.53,1c-.72.53-1.41,1.11-2.1,1.68a24.92,24.92,0,0,1-2.12,1.59A9.41,9.41,0,0,1,122.88,94a7.78,7.78,0,0,1-2.87.28.82.82,0,0,0-.62.34,5.79,5.79,0,0,0-.67.92c-.23.36-.46.76-.7,1.14a8.82,8.82,0,0,1-.73,1c-.19.21-.38.42-.59.62l-.62.59-.65.58-.64.58c-.08-.31-.19-.62-.3-.93s-.23-.63-.33-.94a5.43,5.43,0,0,1-.24-.92,2.54,2.54,0,0,1,0-.87c.13-.69.28-1.37.46-2.06s.38-1.39.6-2.13.46-1.49.71-2.3Z" transform="translate(0.13 0.13)" style="fill:#fff;stroke:#fff;stroke-miterlimit:10;stroke-width:0.25px"/><path d="M94.16,123.38l-2.46,2.85-2.47,2.85-2.47,2.86-2.45,2.84a9.48,9.48,0,0,1,0-4.31,8.6,8.6,0,0,1,1.84-3.56,9.76,9.76,0,0,1,3.37-2.48A12.84,12.84,0,0,1,94.16,123.38Z" transform="translate(0.13 0.13)" style="fill:#fff;stroke:#fff;stroke-miterlimit:10;stroke-width:0.25px"/></g><path d="M100.86,166.15l-8,2.86c-2.65,1-5.31,1.89-8,2.85L77,174.73c-2.64,1-5.28,1.94-7.92,2.93-1.37.51-2.73,1-4.08,1.52a33.76,33.76,0,0,1-4.11,1.2,18.55,18.55,0,0,1-4.22.44,15.39,15.39,0,0,1-4.43-.74,17.31,17.31,0,0,1-5.93-3.27,15.83,15.83,0,0,1-3.92-5,15.43,15.43,0,0,1-1.6-6.12,16.78,16.78,0,0,1,1-6.65c.38-1.05.76-2.11,1.13-3.17s.73-2.13,1.06-3.21.64-2.15.92-3.23.51-2.18.7-3.27a17.18,17.18,0,0,1,1.09-3.72,16.46,16.46,0,0,1,1.79-3.15,19.16,19.16,0,0,1,2.4-2.71,27.59,27.59,0,0,1,2.9-2.4c.89-.65,1.77-1.32,2.64-2s1.73-1.38,2.58-2.11,1.71-1.47,2.55-2.24,1.68-1.56,2.51-2.39a15.84,15.84,0,0,1-3.63.26,5.53,5.53,0,0,1-2.67-.79,3.64,3.64,0,0,1-1.51-2.09,8.94,8.94,0,0,1-.14-3.67,30.71,30.71,0,0,1-5,.69,9.31,9.31,0,0,1-3.38-.39,4.11,4.11,0,0,1-2-1.53,6.42,6.42,0,0,1-.94-2.73,8.78,8.78,0,0,1,0-3A3,3,0,0,1,46,110.34a7.27,7.27,0,0,1,2.89-1.06,37.13,37.13,0,0,1,5-.48c-.49-.71-1-1.41-1.39-2.1s-.88-1.36-1.31-2-.87-1.29-1.33-1.9A21.81,21.81,0,0,0,48.43,101a4.67,4.67,0,0,0-2.08-1.36,3.55,3.55,0,0,0-2.14,0,3.68,3.68,0,0,0-1.78,1.21,4.85,4.85,0,0,0-1,2.34c-.17,1.07-.28,2.13-.36,3.21s-.13,2.15-.16,3.23,0,2.17-.07,3.25,0,2.16-.1,3.24a12.54,12.54,0,0,1-.51,3.33,5.48,5.48,0,0,1-1.39,2.28,5.84,5.84,0,0,1-2.54,1.32,15.07,15.07,0,0,1-4,.45,3.49,3.49,0,0,1-1.66-.5,9.32,9.32,0,0,1-1.75-1.3,11.55,11.55,0,0,1-1.5-1.73,7,7,0,0,1-.95-1.79c-.36-1.08-.7-2.2-1-3.34s-.56-2.3-.75-3.46a23.82,23.82,0,0,1-.33-3.45,15.84,15.84,0,0,1,.27-3.32,11.41,11.41,0,0,1,.92-2.73,17.38,17.38,0,0,1,1.6-2.66,18.24,18.24,0,0,1,2.06-2.39A16,16,0,0,1,31.59,95a55.61,55.61,0,0,0,7-5.25A12.82,12.82,0,0,0,42,84.92a10.48,10.48,0,0,0,.36-5.52,38.16,38.16,0,0,0-2.33-7.5l1.8-1.32,1.7-1.25,1.65-1.21,1.61-1.18a26.31,26.31,0,0,0-5-2.19,10.41,10.41,0,0,0-4-.48,7.1,7.1,0,0,0-3.27,1.15,11.43,11.43,0,0,0-2.81,2.73A31.52,31.52,0,0,0,29.82,71c-.6,1-1.17,2-1.71,3.07S27,76.2,26.5,77.25s-1.07,2.1-1.64,3.13a38.55,38.55,0,0,1-1.7-14.09A42.61,42.61,0,0,1,26.4,52.53a42.1,42.1,0,0,1,7.52-11.87,36.57,36.57,0,0,1,11.13-8.41l1.8-.86c.61-.28,1.21-.57,1.8-.88s1.17-.62,1.74-1,1.11-.7,1.64-1.09a1.74,1.74,0,0,0,.5-.69,5.15,5.15,0,0,0,.28-1c.07-.36.12-.74.18-1.11a10.42,10.42,0,0,1,.22-1.06,9.5,9.5,0,0,1-1-.26l-1-.3a4.94,4.94,0,0,0-.95-.18,1.91,1.91,0,0,0-.84.11c-1.07.44-2.13.9-3.19,1.38s-2.14,1-3.22,1.5l-3.33,1.6-3.52,1.69-.73-.42-1-.55-1.16-.66L32,27.77a9,9,0,0,1,1.55-2.71,9.23,9.23,0,0,1,2.15-1.86A12.45,12.45,0,0,1,38.2,22a17.84,17.84,0,0,1,2.64-.65l6.5-1.13c2.18-.37,4.36-.72,6.54-1s4.37-.54,6.55-.69,4.36-.22,6.53-.16c2.55.07,5.09.27,7.64.56s5.09.66,7.65,1.11,5.11.94,7.67,1.48,5.15,1.1,7.73,1.66a80.84,80.84,0,0,0-13.16,6.45,63.86,63.86,0,0,0-11,8.45,57.92,57.92,0,0,0-8.64,10.56A62.25,62.25,0,0,0,58.7,61.43l-4.21-1.18-4.13-1.16L46.29,58l-4-1.11c-.19-.06-.4-.11-.61-.16a4.76,4.76,0,0,0-.64-.11,3.33,3.33,0,0,0-.63,0,2.2,2.2,0,0,0-.58.09c-.48.14-1,.29-1.43.46s-.94.34-1.41.52l-1.4.55-1.4.54c.44.19.87.42,1.3.65l1.29.68a12.48,12.48,0,0,0,1.31.58,5.75,5.75,0,0,0,1.33.33,56.55,56.55,0,0,1,7.83,1.37,31.87,31.87,0,0,1,7,2.68,22,22,0,0,1,5.83,4.5,22.73,22.73,0,0,1,4.28,6.82,35.93,35.93,0,0,1,2.37,8.33,30.13,30.13,0,0,1-1.87,16.1,37.2,37.2,0,0,1-4.27,7.66c-.07.1-.13.2-.19.3a3.59,3.59,0,0,0-.17.34c-.06.11-.12.24-.18.37s-.13.27-.21.41a7.91,7.91,0,0,0,3.09.46,4.55,4.55,0,0,0,2.29-.79,6.05,6.05,0,0,0,1.66-1.81A12.26,12.26,0,0,0,68,105.1a51.46,51.46,0,0,0,2.23-9.28,42.35,42.35,0,0,0,.33-9.12,39.65,39.65,0,0,0-1.71-8.94A42.45,42.45,0,0,0,65,69.05a12.22,12.22,0,0,1-1-2,7.28,7.28,0,0,1-.43-1.88,6.86,6.86,0,0,1,.1-1.91,10.13,10.13,0,0,1,.63-2.05A77.07,77.07,0,0,1,70.64,49.1a52.35,52.35,0,0,1,8.25-9.91A42.92,42.92,0,0,1,89.44,32a47.11,47.11,0,0,1,13.23-4.1,35.21,35.21,0,0,1,12.59.24,36,36,0,0,1,11.47,4.46,34.53,34.53,0,0,1,9.19,8.11,33.28,33.28,0,0,1,5.77,11.16c.79,2.7,1.45,5.42,2,8.18s1.07,5.53,1.54,8.32.88,5.59,1.32,8.38.88,5.59,1.39,8.37c.1.56.21,1.12.31,1.7s.2,1.15.31,1.74.21,1.2.32,1.82.23,1.28.35,2l1.48-.24,1.48-.25,1.59-.27,1.83-.31c-.82-3.51-1.59-7-2.34-10.48s-1.5-6.93-2.27-10.36-1.57-6.84-2.45-10.22-1.82-6.72-2.88-10a29.66,29.66,0,0,0-2.18-5c-.88-1.62-1.88-3.19-2.92-4.72s-2.13-3-3.19-4.52-2.07-2.94-3-4.39a38.62,38.62,0,0,1,12.23,4.2,69.28,69.28,0,0,1,12.64,8.59,87.18,87.18,0,0,1,11.57,11.85,77.32,77.32,0,0,1,9,13.95,6,6,0,0,0-2.33,1.67,2.91,2.91,0,0,0-.66,1.92,5,5,0,0,0,.6,2.08,13.18,13.18,0,0,0,1.4,2.16,60.16,60.16,0,0,1,4.88,7.47,71.9,71.9,0,0,1,3.78,7.93c1.11,2.72,2.07,5.49,2.93,8.3s1.62,5.68,2.32,8.56a9.07,9.07,0,0,1,.2,1.16c0,.38.07.77.08,1.15s0,.74,0,1.09,0,.68,0,1l-9.84-3.36-9.77-3.35-9.74-3.33-9.72-3.33-.17.34-.18.34-.18.34-.18.34,1.28,2.22,1.32,2.3,1.42,2.47,1.57,2.73-2.19-.36-2-.33-1.85-.3-1.86-.31V118c.49.07,1,.16,1.52.26s1.05.21,1.59.3,1.09.18,1.64.23a10.11,10.11,0,0,0,1.65,0,10.57,10.57,0,0,1,3.16.31,8.44,8.44,0,0,1,2.57,1.16,10.15,10.15,0,0,1,2.12,1.88,16.3,16.3,0,0,1,1.78,2.49,54.16,54.16,0,0,1,3.79,7.68,69,69,0,0,1,2.66,8c.72,2.72,1.31,5.47,1.8,8.25s.89,5.57,1.24,8.38a4.23,4.23,0,0,1-.31,1.93,9.71,9.71,0,0,1-1.12,2.13,11.54,11.54,0,0,1-1.61,1.91,6.59,6.59,0,0,1-1.76,1.25c-2.62,1.17-5.25,2.32-7.92,3.36a83.83,83.83,0,0,1-8.11,2.71,52.6,52.6,0,0,1-8.37,1.59,41.64,41.64,0,0,1-8.72,0l-1.87-.2c-.63-.07-1.26-.15-1.88-.25a18.58,18.58,0,0,1-1.83-.39,11.8,11.8,0,0,1-1.73-.6,30.75,30.75,0,0,0-7.2-2.19,28.06,28.06,0,0,0-7.07-.31,30.61,30.61,0,0,0-6.9,1.39,37.72,37.72,0,0,0-6.69,2.92c-1.66.91-3.27,1.91-4.84,3s-3.13,2.17-4.67,3.3S91,180.83,89.43,182s-3.07,2.27-4.64,3.35c-.34.23-.75.49-1.18.74s-.89.49-1.33.69a5.92,5.92,0,0,1-1.19.42.92.92,0,0,1-.76-.06,15.74,15.74,0,0,1-1.41-1.31,16.61,16.61,0,0,1-1.28-1.5,14.49,14.49,0,0,1-1.08-1.64,13.49,13.49,0,0,1-.82-1.72,1.22,1.22,0,0,1,.21-.86,7,7,0,0,1,.86-1.16A9.05,9.05,0,0,1,78,177.8a4.45,4.45,0,0,1,1.23-.72c1.57-.55,3.14-1.06,4.73-1.56s3.18-1,4.77-1.43l4.78-1.41c1.59-.48,3.18-1,4.75-1.49a4.85,4.85,0,0,0,1.08-.51,11.74,11.74,0,0,0,1-.73c.33-.26.65-.54,1-.82s.65-.54,1-.79l-.37-.54-.37-.55-.37-.55ZM84.06,107.9c1.24.86,2.45,1.75,3.64,2.64s2.36,1.79,3.54,2.64,2.37,1.68,3.59,2.42a29.11,29.11,0,0,0,3.74,2,8.69,8.69,0,0,1,2.23,1.29,3,3,0,0,1,1,1.41,3.25,3.25,0,0,1,0,1.64,11.26,11.26,0,0,1-.66,2q-1.11,2.79-2.24,5.56T96.63,135l-2.23,5.55c-.75,1.85-1.49,3.7-2.24,5.56a15,15,0,0,0-1.09,4.4,9.39,9.39,0,0,0,.46,3.88,8.84,8.84,0,0,0,2,3.31,13.77,13.77,0,0,0,3.67,2.68,34.67,34.67,0,0,0,6.92,2.71,29.45,29.45,0,0,0,7,1,28.18,28.18,0,0,0,7-.76,31.65,31.65,0,0,0,6.93-2.56,12.32,12.32,0,0,0,2.18-1.42,16.65,16.65,0,0,0,2-1.87,22.41,22.41,0,0,0,1.73-2.16,23.15,23.15,0,0,0,1.43-2.27,7.4,7.4,0,0,0,.73-2,17.44,17.44,0,0,0,.32-2.22c.06-.76.1-1.54.14-2.31s.09-1.54.19-2.29l-.52-.07-.53-.08-.53-.08-.53-.08-.24.85c-.07.29-.15.58-.23.86s-.16.57-.25.85-.19.56-.3.84c-.22.57-.42,1.16-.62,1.76s-.4,1.2-.61,1.79a17.38,17.38,0,0,1-.73,1.7,8.41,8.41,0,0,1-1,1.51,16.9,16.9,0,0,1-6,4.46,26,26,0,0,1-7.9,2.18,25.46,25.46,0,0,1-8.15-.33,16,16,0,0,1-6.76-3.08,8,8,0,0,1-1.48-1.67,12.72,12.72,0,0,1-1.15-2.13,15.17,15.17,0,0,1-.78-2.36,14.29,14.29,0,0,1-.4-2.32,8.62,8.62,0,0,1,.28-3.17A8,8,0,0,1,96.7,143a10.57,10.57,0,0,1,2.22-2.15,15.8,15.8,0,0,1,3-1.68,15.8,15.8,0,0,0,2.57-1.48c.83-.57,1.65-1.19,2.46-1.78a21.44,21.44,0,0,1,2.46-1.56,7.45,7.45,0,0,1,2.56-.86,8.44,8.44,0,0,1,2.69.13,18.38,18.38,0,0,1,2.76.82c.92.34,1.85.73,2.76,1.1s1.82.73,2.69,1a9.59,9.59,0,0,0-.5-3.4,5.09,5.09,0,0,0-4.3-3.5,10.24,10.24,0,0,0-3.77.24c-1.24.29-2.46.62-3.69,1s-2.45.8-3.7,1.24l-3.81,1.38c-1.3.47-2.64.95-4,1.42.17-.43.3-.87.43-1.29s.24-.83.36-1.22a10.45,10.45,0,0,1,.42-1.12,4.48,4.48,0,0,1,.58-.94,25.82,25.82,0,0,1,3.63-3.68,21.33,21.33,0,0,1,4.14-2.7,22.11,22.11,0,0,1,4.66-1.69,25.4,25.4,0,0,1,5.19-.67,17.56,17.56,0,0,0,1.9-.15c.63-.08,1.27-.2,1.9-.34s1.25-.31,1.86-.5,1.22-.4,1.8-.64a12.15,12.15,0,0,0,1.81-.89c.59-.33,1.17-.7,1.75-1.06s1.15-.74,1.74-1.08a13.26,13.26,0,0,1,1.81-.9,12.36,12.36,0,0,0,4.76-3.33,9.46,9.46,0,0,0,2.2-4.57,9.27,9.27,0,0,0-.52-5,11.64,11.64,0,0,0-3.42-4.61,11.14,11.14,0,0,0-4.11-2.28,8.08,8.08,0,0,0-4.17-.06,11,11,0,0,0-4.11,2.13,20.62,20.62,0,0,0-3.93,4.28,9.52,9.52,0,0,1-2,2.14,3,3,0,0,1-1.84.64,3.44,3.44,0,0,1-1.88-.75A12.61,12.61,0,0,1,112,102.6a18.06,18.06,0,0,0-1.66-1.74,22.38,22.38,0,0,0-1.92-1.58,19.19,19.19,0,0,0-2.1-1.3,14.13,14.13,0,0,0-2.18-.93,15.24,15.24,0,0,0-5.44-.81,11.31,11.31,0,0,0-4.89,1.41A18.93,18.93,0,0,0,89,101.47,49,49,0,0,0,84.06,107.9Zm32.4-20.58-.77,2.57c-.25.81-.49,1.57-.71,2.3s-.42,1.44-.6,2.13-.33,1.37-.46,2.06a2.54,2.54,0,0,0,0,.87,5.43,5.43,0,0,0,.24.92c.1.31.22.62.33.94s.22.62.3.93l.64-.58.65-.58.62-.59c.21-.2.4-.41.59-.62a8.82,8.82,0,0,0,.73-1c.24-.38.47-.78.7-1.14a5.79,5.79,0,0,1,.67-.92.82.82,0,0,1,.62-.34,7.78,7.78,0,0,0,2.87-.28,9.41,9.41,0,0,0,2.37-1.13,24.92,24.92,0,0,0,2.12-1.59c.69-.57,1.38-1.15,2.1-1.68q.74-.54,1.53-1c.52-.33,1.06-.65,1.61-1s1.11-.56,1.68-.8a15.88,15.88,0,0,1,1.72-.59,8.45,8.45,0,0,1,2.86-.34,2.87,2.87,0,0,1,1.83.79,3.09,3.09,0,0,1,.81,1.87,9.09,9.09,0,0,1-.2,2.93c-.13.63-.27,1.25-.43,1.87s-.32,1.24-.49,1.85-.34,1.24-.52,1.85l-.51,1.85.26.23.26.23.25.23.26.23a10.92,10.92,0,0,1,.91-.7l.94-.69a7.78,7.78,0,0,0,.85-.74,3.67,3.67,0,0,0,.63-.85,8.84,8.84,0,0,0,.51-1.23c.14-.43.25-.87.35-1.32s.16-.91.22-1.37.1-.92.14-1.37a14.49,14.49,0,0,0-.44-5.43,6,6,0,0,0-2.22-3.27,5.83,5.83,0,0,0-3.79-.94,13.85,13.85,0,0,0-5.16,1.53c-.6.29-1.18.6-1.76.92s-1.15.67-1.71,1-1.12.73-1.66,1.11-1.08.77-1.61,1.17a14.32,14.32,0,0,1-2.41,1.54,6.61,6.61,0,0,1-2.45.72,5.12,5.12,0,0,1-2.55-.48A9.24,9.24,0,0,1,116.46,87.32Zm-22.3,36.06a12.84,12.84,0,0,0-4.62,1.05,9.76,9.76,0,0,0-3.37,2.48,8.6,8.6,0,0,0-1.84,3.56,9.48,9.48,0,0,0,0,4.31l2.45-2.84,2.47-2.86,2.47-2.85Zm39.51-3.06-.4.32-.4.32-.4.31-.4.32,2.05,2.54,2.06,2.55,2.06,2.54,2.06,2.55.38-.31.38-.31.37-.31.38-.3-2-2.56-2-2.55-2-2.55Z" transform="translate(0.13 0.13)" style="fill:#fff;stroke:#fff;stroke-miterlimit:10;stroke-width:0.25px"/><path d="M181.79,56.16l1.19,4.5,1.19,4.5,1.19,4.51,1.19,4.5-.46.12-.46.13-.46.12-.45.13a7.39,7.39,0,0,1-2.44-4.13,19.49,19.49,0,0,1-.31-4.73,24.06,24.06,0,0,0-.23-4.75,7.53,7.53,0,0,0-2.2-4.19l.56-.18.56-.18.57-.18Z" transform="translate(0.13 0.13)" style="fill:#fff;stroke:#fff;stroke-miterlimit:10;stroke-width:0.25px"/><path d="M100.59,113.12a10.8,10.8,0,0,1-3.44-.5,8.29,8.29,0,0,1-2.73-1.45,6.61,6.61,0,0,1-1.8-2.22,6.34,6.34,0,0,1-.63-2.82,5.69,5.69,0,0,1,2.43-4.78,8.44,8.44,0,0,1,2.8-1.31,13.34,13.34,0,0,1,3.66-.45,9.87,9.87,0,0,1,3.26.56,8.48,8.48,0,0,1,2.64,1.48,6.78,6.78,0,0,1,1.76,2.18,5.59,5.59,0,0,1-.13,5.25,6.86,6.86,0,0,1-1.82,2.1,9.08,9.08,0,0,1-2.69,1.42A10.68,10.68,0,0,1,100.59,113.12Z" transform="translate(0.13 0.13)" style="fill:#fff;stroke:#fff;stroke-miterlimit:10;stroke-width:0.25px"/><path d="M130.45,100.82a14,14,0,0,1,2.32.45,7.25,7.25,0,0,1,2.07,1,5.1,5.1,0,0,1,1.55,1.73,6.83,6.83,0,0,1,.73,2.75,6.05,6.05,0,0,1-.4,2.66,6.36,6.36,0,0,1-1.44,2.21A7.28,7.28,0,0,1,133,113.1a7.59,7.59,0,0,1-2.8.62,7.24,7.24,0,0,1-5.1-1.87,6.66,6.66,0,0,1-1.57-2.13,6,6,0,0,1-.57-2.6,6.33,6.33,0,0,1,.53-2.54,5.7,5.7,0,0,1,1.47-2,6.78,6.78,0,0,1,2.34-1.29A9.9,9.9,0,0,1,130.45,100.82Z" transform="translate(0.13 0.13)" style="fill:#fff;stroke:#fff;stroke-miterlimit:10;stroke-width:0.25px"/><path d="M122.45,114.08a13.34,13.34,0,0,1-2.46,2.65,7.91,7.91,0,0,1-2.5,1.33,7,7,0,0,1-2.52.27,10.41,10.41,0,0,1-2.54-.51,1.88,1.88,0,0,1-.77-.61,5.23,5.23,0,0,1-.68-1.08,5.76,5.76,0,0,1-.43-1.22,1.78,1.78,0,0,1,0-1,9.21,9.21,0,0,1,.73-1.52,16.49,16.49,0,0,1,1-1.43c.35-.47.72-.93,1.08-1.39s.73-.93,1.06-1.4l2,1.46,2,1.47,2,1.48Z" transform="translate(0.13 0.13)" style="fill:#fff;stroke:#fff;stroke-miterlimit:10;stroke-width:0.25px"/></svg>